<svg width="13" height="15" fill="none" xmlns="http://www.w3.org/2000/svg"><g clip-path="url(#clip0_1_126)"><path d="M13.527 7.375c-1.183.75-2.308 1.683-3.375 2.8-1.066 1.1-1.925 2.167-2.575 3.2l-1.025-.725a16.84 16.84 0 011.8-2.375c.7-.8 1.484-1.542 2.35-2.225H-.848V6.7h11.55a17.553 17.553 0 01-2.35-2.225 16.84 16.84 0 01-1.8-2.375l1.025-.725c.65 1.033 1.509 2.108 2.575 3.225a18.533 18.533 0 003.375 2.775z" fill="#1F1E1E"/></g><defs><clipPath id="clip0_1_126"><path fill="#fff" d="M0 0h13v15H0z"/></clipPath></defs></svg>